# File created by Blade
# Date/Time:  Tue Sep 30 19:29:15 2014
#---------------------------------------------------------
:version 1.10
:name HOM
:units
  mass 1.0
  length 1.000000
  angle deg
:documentation
     Acclaim Skeleton File
:root
   axis xyz
   order TX TY TZ RX RY RZ
   position 0.000000 0.000000 0.000000
   orientation 0 0 0
:bonedata
   begin
      id 1
      name RightUpLeg_dum
      direction -1.000000 0.000000 0.000000
      length 3.766986
      axis 0.0 0.0 0.0 xyz
   end
   begin
      id 2
      name LeftUpLeg_dum
      direction 1.000000 0.000000 0.000000
      length 3.766986
      axis 0.0 0.0 0.0 xyz
   end
   begin
      id 3
      name Spine_dum
      direction 0.000000 1.000000 0.000000
      length 7.779697
      axis 0.0 0.0 0.0 xyz
   end
   begin
      id 4
      name RightUpLeg
      direction 0.000000 -1.000000 0.000000
      length 18.017682
      axis 0.0 0.0 0.0 xyz
      dof rx ry rz
   end
   begin
      id 5
      name RightLeg
      direction 0.000000 -1.000000 0.000000
      length 16.881075
      axis 0.0 0.0 0.0 xyz
      dof rx ry rz
   end
   begin
      id 6
      name RightFoot
      direction 0.000000 -0.258819 0.965926
      length 5.770812
      axis 15.0 0.0 0.0 xyz
      dof rx ry rz
   end
   begin
      id 7
      name RightToeBase
      direction 0.000000 0.000000 1.000000
      length 2.952750
      axis 0.0 0.0 0.0 xyz
      dof rx ry rz
   end
   begin
      id 8
      name LeftUpLeg
      direction 0.000000 -1.000000 0.000000
      length 18.017682
      axis 0.0 0.0 0.0 xyz
      dof rx ry rz
   end
   begin
      id 9
      name LeftLeg
      direction 0.000000 -1.000000 0.000000
      length 16.881075
      axis 0.0 0.0 0.0 xyz
      dof rx ry rz
   end
   begin
      id 10
      name LeftFoot
      direction 0.000000 -0.258819 0.965926
      length 5.770812
      axis 15.0 0.0 0.0 xyz
      dof rx ry rz
   end
   begin
      id 11
      name LeftToeBase
      direction 0.000000 0.000000 1.000000
      length 2.952750
      axis 0.0 0.0 0.0 xyz
      dof rx ry rz
   end
   begin
      id 12
      name Spine
      direction 0.000000 1.000000 0.000000
      length 0.000000
      axis 0.0 0.0 0.0 xyz
      dof rx ry rz
   end
   begin
      id 13
      name Spine_dum1
      direction 0.000000 1.000000 0.000000
      length 10.941760
      axis 0.0 0.0 0.0 xyz
   end
   begin
      id 14
      name Spine_dum2
      direction 0.000000 1.000000 0.000000
      length 10.941760
      axis 0.0 0.0 0.0 xyz
   end
   begin
      id 15
      name Spine_dum3
      direction 0.000000 1.000000 0.000000
      length 16.646042
      axis 0.0 0.0 0.0 xyz
   end
   begin
      id 16
      name RightShoulder
      direction -1.000000 0.000000 0.000000
      length 7.708937
      axis 0.0 0.0 90.0 xyz
      dof rx ry rz
   end
   begin
      id 17
      name RightArm
      direction -1.000000 0.000000 0.000000
      length 11.521345
      axis 0.0 0.0 90.0 xyz
      dof rx ry rz
   end
   begin
      id 18
      name RightForeArm
      direction -1.000000 0.000000 0.000000
      length 10.175898
      axis 0.0 0.0 90.0 xyz
      dof ry rz rx
   end
   begin
      id 19
      name RightHand
      direction -1.000000 0.000000 0.000000
      length 0.000000
      axis 0.0 0.0 90.0 xyz
      dof rx ry rz
   end
   begin
      id 20
      name RightHand_dum1
      direction -1.000000 0.000000 0.000000
      length 3.937000
      axis 0.0 0.0 90.0 xyz
   end
   begin
      id 21
      name RightHand_dum2
      direction 0.000000 0.000000 0.000000
      length 0.000000
      axis 0.0 0.0 90.0 xyz
   end
   begin
      id 22
      name RightHandThumb1
      direction 0.000000 0.000000 1.000000
      length 3.937000
      axis 0.0 0.0 90.0 xyz
      dof rx rz ry
   end
   begin
      id 23
      name LeftShoulder
      direction 1.000000 0.000000 0.000000
      length 7.708937
      axis 0.0 0.0 -90.0 xyz
      dof rx ry rz
   end
   begin
      id 24
      name LeftArm
      direction 1.000000 0.000000 0.000000
      length 11.521345
      axis 0.0 0.0 -90.0 xyz
      dof rx ry rz
   end
   begin
      id 25
      name LeftForeArm
      direction 1.000000 0.000000 0.000000
      length 10.175898
      axis 0.0 0.0 -90.0 xyz
      dof ry rz rx
   end
   begin
      id 26
      name LeftHand
      direction 1.000000 0.000000 0.000000
      length 0.000000
      axis 0.0 0.0 -90.0 xyz
      dof rx ry rz
   end
   begin
      id 27
      name LeftHand_dum1
      direction 1.000000 0.000000 0.000000
      length 3.937000
      axis 0.0 0.0 -90.0 xyz
   end
   begin
      id 28
      name LeftHand_dum2
      direction 0.000000 0.000000 0.000000
      length 0.000000
      axis 0.0 0.0 -90.0 xyz
   end
   begin
      id 29
      name LeftHandThumb1
      direction 0.000000 0.000000 1.000000
      length 3.937000
      axis 0.0 0.0 -90.0 xyz
      dof rx rz ry
   end
   begin
      id 30
      name Head
      direction 0.000000 1.000000 0.000000
      length 4.527550
      axis 0.0 0.0 0.0 xyz
      dof rx ry rz
   end
:hierarchy
   begin
      root RightUpLeg_dum LeftUpLeg_dum Spine_dum
      RightUpLeg_dum RightUpLeg
      LeftUpLeg_dum LeftUpLeg
      Spine_dum Spine
      RightUpLeg RightLeg
      RightLeg RightFoot
      RightFoot RightToeBase
      LeftUpLeg LeftLeg
      LeftLeg LeftFoot
      LeftFoot LeftToeBase
      Spine Spine_dum1 Spine_dum2 Spine_dum3
      Spine_dum1 RightShoulder
      Spine_dum2 LeftShoulder
      Spine_dum3 Head
      RightShoulder RightArm
      RightArm RightForeArm
      RightForeArm RightHand
      RightHand RightHand_dum1 RightHand_dum2
      RightHand_dum2 RightHandThumb1
      LeftShoulder LeftArm
      LeftArm LeftForeArm
      LeftForeArm LeftHand
      LeftHand LeftHand_dum1 LeftHand_dum2
      LeftHand_dum2 LeftHandThumb1
   end

# File created by Blade
# Date/Time:  Mon Sep 22 16:45:27 2014
# Frame Rate: 120.000 fps
#------------------------------------------------------
:FULLY-SPECIFIED
:DEGREES
945
root 3.952444 36.804515 3.695804 -38.924210 -10.806919 15.736688
RightUpLeg 32.731886 1.576831 -12.564355
RightLeg 26.549068 -0.000000 -0.000000
RightFoot -29.057115 -2.971384 10.486952
RightToeBase 8.581293 -0.000000 -0.000000
LeftUpLeg -80.842777 -1.733586 -16.216490
LeftLeg 113.762066 -0.000000 -0.000000
LeftFoot 11.329363 15.470627 -27.735551
LeftToeBase 3.142030 -0.000000 -0.000000
Spine 40.598926 12.387441 0.682834
RightShoulder 8.226394 -9.290786 -25.136271
RightArm 35.370774 15.676644 43.244288
RightForeArm -9.114976 -0.000000 79.469585
RightHand -2.859271 0.000000 -14.743143
RightHandThumb1 -24.326973 -0.000000 -32.862282
LeftShoulder -30.197148 35.658315 -10.589275
LeftArm 22.091840 -10.490579 -70.397664
LeftForeArm 36.185286 -0.000000 14.960218
LeftHand -15.920429 0.000000 -15.049118
LeftHandThumb1 -26.253704 0.000000 33.147579
Head 7.359673 -5.468552 -13.290462
946
root 3.958642 36.807199 3.685081 -38.901134 -10.709807 15.679296
RightUpLeg 32.749720 1.442337 -12.617558
RightLeg 26.520664 -0.000000 -0.000000
RightFoot -29.000213 -2.928388 10.488666
RightToeBase 8.566811 -0.000000 -0.000000
LeftUpLeg -80.898590 -1.591675 -16.553145
LeftLeg 113.682378 -0.000000 -0.000000
LeftFoot 11.290847 15.458815 -27.785544
LeftToeBase 3.046808 -0.000000 -0.000000
Spine 40.635630 12.317666 0.739130
RightShoulder 8.212436 -9.344647 -25.101065
RightArm 35.396109 15.794280 43.326503
RightForeArm -9.211883 -0.000000 79.457177
RightHand -2.845952 0.000000 -14.781284
RightHandThumb1 -24.326973 -0.000000 -32.862282
LeftShoulder -30.176812 35.664890 -10.557351
LeftArm 22.122337 -10.400727 -70.447347
LeftForeArm 36.118388 -0.000000 15.003880
LeftHand -15.892465 -0.000000 -15.140688
LeftHandThumb1 -26.253704 0.000000 33.147579
Head 7.443959 -5.390127 -13.180075
947
root 3.965431 36.809523 3.676211 -38.886661 -10.621142 15.607058
RightUpLeg 32.780310 1.320044 -12.645856
RightLeg 26.475722 -0.000000 -0.000000
RightFoot -28.942640 -2.908666 10.496698
RightToeBase 8.534562 -0.000000 -0.000000
LeftUpLeg -80.940602 -1.462649 -16.830902
LeftLeg 113.607728 -0.000000 -0.000000
LeftFoot 11.259325 15.394670 -27.819974
LeftToeBase 3.169676 -0.000000 -0.000000
Spine 40.683508 12.228861 0.821312
RightShoulder 8.194904 -9.361073 -25.069380
RightArm 35.395634 15.883572 43.383015
RightForeArm -9.262681 -0.000000 79.446712
RightHand -2.803598 0.000000 -14.892055
RightHandThumb1 -24.326973 -0.000000 -32.862282
LeftShoulder -30.247552 35.719488 -10.594101
LeftArm 22.257026 -10.251405 -70.487185
LeftForeArm 36.062471 -0.000000 15.018840
LeftHand -15.849961 0.000000 -15.204296
LeftHandThumb1 -26.253704 0.000000 33.147579
Head 7.520044 -5.318734 -13.117048
948
root 3.972922 36.812468 3.665345 -38.855331 -10.521633 15.543540
RightUpLeg 32.796308 1.235997 -12.643565
RightLeg 26.436996 -0.000000 -0.000000
RightFoot -28.876122 -2.917114 10.520595
RightToeBase 8.494984 -0.000000 -0.000000
LeftUpLeg -80.998187 -1.348184 -17.117089
LeftLeg 113.520767 -0.000000 -0.000000
LeftFoot 11.317132 15.364016 -27.696047
LeftToeBase 2.955248 -0.000000 -0.000000
Spine 40.713760 12.141955 0.879756
RightShoulder 8.185338 -9.340488 -25.020664
RightArm 35.355652 15.952502 43.443024
RightForeArm -9.340273 -0.000000 79.454288
RightHand -2.808398 0.000000 -14.911397
RightHandThumb1 -24.326973 -0.000000 -32.862282
LeftShoulder -30.266874 35.748540 -10.618558
LeftArm 22.330656 -10.181096 -70.523509
LeftForeArm 36.061581 -0.000000 15.079415
LeftHand -15.793892 -0.000000 -15.330935
LeftHandThumb1 -26.253704 0.000000 33.147579
Head 7.587980 -5.244274 -13.044852
949
root 3.979817 36.816334 3.654415 -38.821949 -10.423822 15.477656
RightUpLeg 32.816181 1.165581 -12.617372
RightLeg 26.373327 -0.000000 -0.000000
RightFoot -28.821998 -2.992921 10.551872
RightToeBase 8.450638 -0.000000 -0.000000
LeftUpLeg -81.049398 -1.251387 -17.324091
LeftLeg 113.417335 -0.000000 -0.000000
LeftFoot 11.332265 15.247413 -27.872452
LeftToeBase 3.203406 -0.000000 -0.000000
Spine 40.734987 12.045285 0.940108
RightShoulder 8.195054 -9.330626 -24.991592
RightArm 35.306825 16.032892 43.533757
RightForeArm -9.425456 -0.000000 79.477536
RightHand -2.813883 0.000000 -15.005626
RightHandThumb1 -24.326973 -0.000000 -32.862282
LeftShoulder -30.285472 35.738477 -10.640070
LeftArm 22.369066 -10.090434 -70.531069
LeftForeArm 36.027979 -0.000000 15.138237
LeftHand -15.569546 -0.000000 -15.567169
LeftHandThumb1 -26.253704 0.000000 33.147579
Head 7.666201 -5.134479 -12.997593
950
root 3.985181 36.819127 3.641836 -38.764537 -10.348885 15.416309
RightUpLeg 32.804380 1.125723 -12.550140
RightLeg 26.316113 -0.000000 -0.000000
RightFoot -28.775141 -3.132188 10.554493
RightToeBase 8.397293 -0.000000 -0.000000
LeftUpLeg -81.131900 -1.136374 -17.489060
LeftLeg 113.293269 -0.000000 -0.000000
LeftFoot 11.528219 15.045158 -27.958946
LeftToeBase 2.784884 -0.000000 -0.000000
Spine 40.725730 11.980047 1.013968
RightShoulder 8.195051 -9.335639 -24.957645
RightArm 35.259751 16.106652 43.621688
RightForeArm -9.532686 -0.000000 79.513125
RightHand -2.828015 -0.000000 -15.083946
RightHandThumb1 -24.326973 -0.000000 -32.862282
LeftShoulder -30.292385 35.753480 -10.676825
LeftArm 22.435154 -10.038242 -70.543584
LeftForeArm 36.075179 -0.000000 15.202127
LeftHand -15.487305 -0.000000 -15.651661
LeftHandThumb1 -26.253704 0.000000 33.147579
Head 7.757518 -5.018129 -12.960759
951
root 3.990149 36.820551 3.629088 -38.700119 -10.309723 15.348906
RightUpLeg 32.777544 1.131035 -12.432953
RightLeg 26.270100 -0.000000 -0.000000
RightFoot -28.736727 -3.245862 10.563733
RightToeBase 8.379798 -0.000000 -0.000000
LeftUpLeg -81.237687 -0.999626 -17.615606
LeftLeg 113.196604 -0.000000 -0.000000
LeftFoot 11.538319 15.003397 -28.188056
LeftToeBase 2.974393 -0.000000 -0.000000
Spine 40.709763 11.925279 1.112847
RightShoulder 8.200910 -9.333132 -24.936166
RightArm 35.201725 16.162140 43.679478
RightForeArm -9.642123 -0.000000 79.551012
RightHand -2.829488 -0.000000 -15.200518
RightHandThumb1 -24.326973 -0.000000 -32.862282
LeftShoulder -30.256468 35.696170 -10.664436
LeftArm 22.385405 -10.004864 -70.566841
LeftForeArm 36.154272 -0.000000 15.318881
LeftHand -15.412455 0.000000 -15.749696
LeftHandThumb1 -26.253704 0.000000 33.147579
Head 7.838516 -4.868595 -12.938501
952
root 3.993697 36.821857 3.616713 -38.647421 -10.303450 15.301907
RightUpLeg 32.743962 1.157929 -12.308244
RightLeg 26.221831 -0.000000 -0.000000
RightFoot -28.720561 -3.437767 10.556087
RightToeBase 8.335430 -0.000000 -0.000000
LeftUpLeg -81.336065 -0.829791 -17.687888
LeftLeg 113.103693 -0.000000 -0.000000
LeftFoot 11.548832 14.868284 -28.519986
LeftToeBase 3.065537 -0.000000 -0.000000
Spine 40.710624 11.905715 1.217839
RightShoulder 8.181528 -9.347026 -24.919202
RightArm 35.187516 16.222498 43.757396
RightForeArm -9.833295 -0.000000 79.586994
RightHand -2.914647 -0.000000 -15.151399
RightHandThumb1 -24.326973 -0.000000 -32.862282
LeftShoulder -30.227551 35.571883 -10.621468
LeftArm 22.313878 -9.930349 -70.569764
LeftForeArm 36.176332 -0.000000 15.401046
LeftHand -15.340313 -0.000000 -15.848576
LeftHandThumb1 -26.253704 0.000000 33.147579
Head 7.892845 -4.714862 -12.931135
953
root 3.997880 36.822521 3.602403 -38.578619 -10.274083 15.259978
RightUpLeg 32.701073 1.184767 -12.184234
RightLeg 26.170087 -0.000000 -0.000000
RightFoot -28.707764 -3.654916 10.537603
RightToeBase 8.247709 -0.000000 -0.000000
LeftUpLeg -81.434975 -0.684328 -17.749617
LeftLeg 112.995484 -0.000000 -0.000000
LeftFoot 11.463244 14.804915 -28.925042
LeftToeBase 3.069658 -0.000000 -0.000000
Spine 40.688166 11.877902 1.292348
RightShoulder 8.173364 -9.353175 -24.895962
RightArm 35.154567 16.282522 43.837415
RightForeArm -10.014142 -0.000000 79.624386
RightHand -2.895336 -0.000000 -15.272038
RightHandThumb1 -24.326973 -0.000000 -32.862282
LeftShoulder -30.229900 35.539825 -10.621382
LeftArm 22.346321 -9.887526 -70.600012
LeftForeArm 36.237503 -0.000000 15.484344
LeftHand -15.471770 -0.000000 -15.790638
LeftHandThumb1 -26.253704 0.000000 33.147579
Head 7.945371 -4.543540 -12.911803
954
root 4.002360 36.823810 3.587724 -38.520836 -10.239599 15.223692
RightUpLeg 32.676555 1.223095 -12.063048
RightLeg 26.092705 -0.000000 -0.000000
RightFoot -28.680163 -3.897014 10.481459
RightToeBase 8.156710 -0.000000 -0.000000
LeftUpLeg -81.517023 -0.531293 -17.800646
LeftLeg 112.854663 -0.000000 -0.000000
LeftFoot 11.505725 14.630469 -29.093596
LeftToeBase 3.070946 -0.000000 -0.000000
Spine 40.683805 11.848734 1.353320
RightShoulder 8.171488 -9.324766 -24.865724
RightArm 35.090245 16.335270 43.913525
RightForeArm -10.154306 -0.000000 79.673978
RightHand -2.909949 -0.000000 -15.316538
RightHandThumb1 -24.326973 -0.000000 -32.862282
LeftShoulder -30.264276 35.516677 -10.629315
LeftArm 22.433939 -9.831199 -70.640284
LeftForeArm 36.280486 -0.000000 15.527042
LeftHand -15.411359 -0.000000 -15.869991
LeftHandThumb1 -26.253704 0.000000 33.147579
Head 7.984088 -4.369729 -12.888615
955
root 4.006603 36.826154 3.572173 -38.470151 -10.196301 15.202928
RightUpLeg 32.660760 1.290909 -11.926974
RightLeg 26.021883 -0.000000 -0.000000
RightFoot -28.690461 -4.148918 10.499091
RightToeBase 8.175887 -0.000000 -0.000000
LeftUpLeg -81.578153 -0.370914 -17.824269
LeftLeg 112.715706 -0.000000 -0.000000
LeftFoot 11.491388 14.469403 -29.428528
LeftToeBase 3.104539 -0.000000 -0.000000
Spine 40.686694 11.822076 1.386953
RightShoulder 8.174455 -9.304831 -24.838237
RightArm 35.031034 16.381376 43.970347
RightForeArm -10.258116 -0.000000 79.729517
RightHand -2.949561 0.000000 -15.394543
RightHandThumb1 -24.326973 -0.000000 -32.862282
LeftShoulder -30.293043 35.502747 -10.642290
LeftArm 22.529669 -9.769176 -70.666127
LeftForeArm 36.261023 -0.000000 15.588249
LeftHand -15.403752 0.000000 -15.925911
LeftHandThumb1 -26.253704 0.000000 33.147579
Head 8.014100 -4.198818 -12.871545
